<svg width="45" height="35" viewBox="0 0 45 35" fill="none" xmlns="http://www.w3.org/2000/svg">
<path d="M19.6875 34.375C19.6875 34.375 16.875 34.375 16.875 31.5625C16.875 28.75 19.6875 20.3125 30.9375 20.3125C42.1875 20.3125 45 28.75 45 31.5625C45 34.375 42.1875 34.375 42.1875 34.375H19.6875ZM30.9375 17.5C33.1753 17.5 35.3214 16.6111 36.9037 15.0287C38.4861 13.4464 39.375 11.3003 39.375 9.0625C39.375 6.82474 38.4861 4.67863 36.9037 3.09629C35.3214 1.51395 33.1753 0.625 30.9375 0.625C28.6997 0.625 26.5536 1.51395 24.9713 3.09629C23.3889 4.67863 22.5 6.82474 22.5 9.0625C22.5 11.3003 23.3889 13.4464 24.9713 15.0287C26.5536 16.6111 28.6997 17.5 30.9375 17.5Z" fill="black"/>
<path fill-rule="evenodd" clip-rule="evenodd" d="M14.67 34.375C14.2531 33.497 14.0451 32.5343 14.0625 31.5625C14.0625 27.7516 15.975 23.8281 19.5075 21.1C17.7443 20.5567 15.9074 20.291 14.0625 20.3125C2.8125 20.3125 0 28.75 0 31.5625C0 34.375 2.8125 34.375 2.8125 34.375H14.67Z" fill="black"/>
<path d="M12.6562 17.5C14.5211 17.5 16.3095 16.7592 17.6281 15.4406C18.9467 14.122 19.6875 12.3336 19.6875 10.4688C19.6875 8.60395 18.9467 6.81552 17.6281 5.49691C16.3095 4.17829 14.5211 3.4375 12.6562 3.4375C10.7914 3.4375 9.00302 4.17829 7.68441 5.49691C6.36579 6.81552 5.625 8.60395 5.625 10.4688C5.625 12.3336 6.36579 14.122 7.68441 15.4406C9.00302 16.7592 10.7914 17.5 12.6562 17.5Z" fill="black"/>
</svg>
